<svg xmlns="http://www.w3.org/2000/svg" width="505.445" height="237.983" viewBox="0 0 505.445 237.983">
  <g id="Group_15"
      transform="translate(54 12.983)">
    <g id="Group_14"
        transform="translate(-54 -13.629)">
      <path id="Path_3"
          d="M468,236.947s66.54-253.76,9.229-235.754C443,11.947,357.634,132.609,336.41,111.551,254.068,29.855,234,100.947,150,55.818S0,187.7,0,187.7l41.735,49.244H468Z" transform="translate(0 1.682)" fill="#6386f7"/>
    </g>
    <path id="Path_3_Copy"
        d="M468,238.629S508.059-26.192,477.229,2.875c-30.95,29.18-6.584,116.44-61.729,116.44-49.4,0-119.874,51.41-140.5,51.41-136.766,0-101-157.1-167.752-57.526S0,189.385,0,189.385l41.735,49.244H468Z" transform="translate(-37.445 -13.629)" fill="#b882f8" opacity="0.559"/>
  </g>
</svg>
